<?xml version="1.0" encoding="UTF-8" standalone="no"?>
<!-- Uploaded to: SVG Repo, www.svgrepo.com, Generator: SVG Repo Mixer Tools -->

<svg
   fill="#000000"
   width="800px"
   height="800px"
   viewBox="0 0 1920 1920"
   version="1.1"
   id="svg1"
   sodipodi:docname="pin-icon-open.svg"
   inkscape:version="1.3 (0e150ed6c4, 2023-07-21)"
   inkscape:export-filename="pin-icon-open.svg"
   inkscape:export-xdpi="7.6799998"
   inkscape:export-ydpi="7.6799998"
   xmlns:inkscape="http://www.inkscape.org/namespaces/inkscape"
   xmlns:sodipodi="http://sodipodi.sourceforge.net/DTD/sodipodi-0.dtd"
   xmlns="http://www.w3.org/2000/svg"
   xmlns:svg="http://www.w3.org/2000/svg">
  <defs
     id="defs1" />
  <sodipodi:namedview
     id="namedview1"
     pagecolor="#505050"
     bordercolor="#eeeeee"
     borderopacity="1"
     inkscape:showpageshadow="0"
     inkscape:pageopacity="0"
     inkscape:pagecheckerboard="0"
     inkscape:deskcolor="#505050"
     inkscape:zoom="0.51839765"
     inkscape:cx="413.77502"
     inkscape:cy="363.62048"
     inkscape:window-width="3440"
     inkscape:window-height="1369"
     inkscape:window-x="-8"
     inkscape:window-y="-8"
     inkscape:window-maximized="1"
     inkscape:current-layer="svg1" />
  <path
     d="M 527.36437,93.841938 526.80092,283.504 c -0.18118,68.69505 50.90147,123.58867 116.5581,134.62204 l -0.90573,344.51968 c -0.0777,4.64499 1.35141,8.83574 2.58276,13.09143 C 526.35981,824.36219 438.054,942.74402 437.64073,1074.8336 l -0.29225,111.6126 476.28212,1.2515 -1.55708,592.0828 c -0.13266,25.5797 20.55238,46.3738 46.13314,46.3762 12.75707,0.098 24.35145,-5.04 32.74741,-13.3919 8.39578,-8.3519 13.59453,-19.919 13.62843,-32.7417 l 1.5563,-592.0823 476.2175,1.1864 0.2932,-111.6127 c 0.2934,-86.42329 -33.1867,-167.83321 -94.2621,-229.23064 -31.8425,-32.01041 -69.3971,-56.11998 -110.1142,-72.25614 0.3989,-2.61552 1.5177,-5.03393 1.5249,-7.7808 l 0.9159,-348.44601 c 29.1271,-4.82985 56.1763,-16.07655 76.1829,-35.97826 25.1889,-25.05686 40.8507,-59.82137 40.9505,-98.02828 l 0.4998,-189.728266 z"
     fill-rule="evenodd"
     id="path1"
     style="fill:#4d4d4d;fill-opacity:1;fill-rule:evenodd;stroke-width:0.81987;stroke-dasharray:none"
     sodipodi:nodetypes="ccccccccccsccccscccsccc"
     inkscape:transform-center-x="2.089166"
     inkscape:transform-center-y="-4.1782517" />
</svg>
