<?xml version="1.0" encoding="UTF-8" standalone="no"?>
<!-- Uploaded to: SVG Repo, www.svgrepo.com, Generator: SVG Repo Mixer Tools -->

<svg
   fill="#000000"
   width="800px"
   height="800px"
   viewBox="0 0 1920 1920"
   version="1.1"
   id="svg1"
   sodipodi:docname="pin-icon-open_white.svg"
   inkscape:version="1.3 (0e150ed6c4, 2023-07-21)"
   xmlns:inkscape="http://www.inkscape.org/namespaces/inkscape"
   xmlns:sodipodi="http://sodipodi.sourceforge.net/DTD/sodipodi-0.dtd"
   xmlns="http://www.w3.org/2000/svg"
   xmlns:svg="http://www.w3.org/2000/svg">
  <defs
     id="defs1" />
  <sodipodi:namedview
     id="namedview1"
     pagecolor="#505050"
     bordercolor="#eeeeee"
     borderopacity="1"
     inkscape:showpageshadow="0"
     inkscape:pageopacity="0"
     inkscape:pagecheckerboard="0"
     inkscape:deskcolor="#505050"
     inkscape:zoom="1.0367953"
     inkscape:cx="181.32798"
     inkscape:cy="427.76042"
     inkscape:window-width="3440"
     inkscape:window-height="1369"
     inkscape:window-x="-8"
     inkscape:window-y="-8"
     inkscape:window-maximized="1"
     inkscape:current-layer="svg1" />
  <path
     d="M 480.62535,0.26807471 480.00102,210.41995 c -0.20076,76.1164 56.40052,136.94034 129.15025,149.16569 L 608.1477,741.3249 c -0.0861,5.14681 1.4974,9.79029 2.86177,14.50574 C 479.51225,809.7088 381.66649,940.8798 381.20857,1087.2395 l -0.32382,123.6704 527.73642,1.3867 -1.7253,656.0474 c -0.147,28.3432 22.77272,51.3838 51.11706,51.3864 14.13525,0.1085 26.98221,-5.5845 36.28521,-14.8386 9.30286,-9.2542 15.06326,-22.071 15.10066,-36.279 l 1.7246,-656.0468 527.6647,1.3145 0.325,-123.6705 c 0.325,-95.7599 -36.772,-185.9648 -104.4456,-253.9952 -35.2825,-35.4686 -76.8943,-62.1828 -122.0102,-80.0622 0.442,-2.89808 1.6816,-5.57777 1.6896,-8.62139 l 1.0149,-386.08976 c 32.2738,-5.35163 62.2452,-17.81335 84.4131,-39.8651 27.9102,-27.76384 45.2639,-66.28408 45.3746,-108.6186 l 0.5538,-210.2252253 z"
     fill-rule="evenodd"
     id="path1"
     style="fill:#ffffff;fill-opacity:1;fill-rule:evenodd;stroke-width:0.908443;stroke-dasharray:none"
     sodipodi:nodetypes="ccccccccccsccccscccsccc"
     inkscape:transform-center-x="2.3148249"
     inkscape:transform-center-y="-4.6296505" />
</svg>
