<?xml version="1.0" encoding="UTF-8" standalone="no"?>
<!-- Uploaded to: SVG Repo, www.svgrepo.com, Generator: SVG Repo Mixer Tools -->

<svg
   fill="#000000"
   width="800"
   height="800"
   viewBox="0 0 1920 1920"
   version="1.1"
   id="svg1"
   sodipodi:docname="pin-icon-default.svg"
   inkscape:version="1.3 (0e150ed6c4, 2023-07-21)"
   inkscape:export-filename="pin-icon-default.svg"
   inkscape:export-xdpi="7.6799998"
   inkscape:export-ydpi="7.6799998"
   xmlns:inkscape="http://www.inkscape.org/namespaces/inkscape"
   xmlns:sodipodi="http://sodipodi.sourceforge.net/DTD/sodipodi-0.dtd"
   xmlns="http://www.w3.org/2000/svg"
   xmlns:svg="http://www.w3.org/2000/svg">
  <defs
     id="defs1" />
  <sodipodi:namedview
     id="namedview1"
     pagecolor="#505050"
     bordercolor="#eeeeee"
     borderopacity="1"
     inkscape:showpageshadow="0"
     inkscape:pageopacity="0"
     inkscape:pagecheckerboard="0"
     inkscape:deskcolor="#505050"
     inkscape:zoom="1.0367953"
     inkscape:cx="368.92528"
     inkscape:cy="396.89609"
     inkscape:window-width="3440"
     inkscape:window-height="1369"
     inkscape:window-x="-8"
     inkscape:window-y="-8"
     inkscape:window-maximized="1"
     inkscape:current-layer="svg1" />
  <path
     d="m 1209.1499,136.99569 -157.9177,138.65857 c -57.18054,50.24075 -65.29514,132.92938 -26.2954,195.54729 L 738.16692,723.1716 c -3.91443,3.34281 -6.3463,7.60372 -8.97717,11.74805 C 601.75429,672.03417 438.66781,685.5397 328.67114,782.09078 l -92.90277,81.63065 348.33719,396.44527 -492.835837,433.0289 c -21.33991,18.6538 -23.43488,51.0852 -4.67207,72.3304 9.27662,10.6659 22.048417,16.5255 35.143017,17.3714 13.09467,0.8458 26.51412,-3.322 37.18748,-12.7001 l 492.83488,-433.029 348.34377,396.3438 92.9036,-81.6298 c 71.9852,-63.1522 115.0326,-150.6738 121.2181,-246.4318 3.2249,-49.9247 -4.3015,-98.7974 -20.7693,-144.4475 2.4647,-1.5873 5.2937,-2.4323 7.5801,-4.4413 l 290.038,-254.8417 c 25.3771,20.6456 54.5588,34.8585 85.7619,36.874 39.2858,2.5377 79.6445,-9.9576 111.4466,-37.9013 l 157.926,-138.75998 z"
     fill-rule="evenodd"
     id="path1"
     style="fill:#4d4d4d;fill-opacity:1;fill-rule:evenodd;stroke-width:0.908443;stroke-dasharray:none"
     sodipodi:nodetypes="ccccccccccsccccscccsccc" />
</svg>
