<?xml version="1.0" encoding="UTF-8" standalone="no"?>
<!-- Uploaded to: SVG Repo, www.svgrepo.com, Generator: SVG Repo Mixer Tools -->

<svg
   fill="#000000"
   width="800px"
   height="800px"
   viewBox="0 0 1920 1920"
   version="1.1"
   id="svg1"
   sodipodi:docname="pin-icon-default_white.svg"
   inkscape:version="1.3 (0e150ed6c4, 2023-07-21)"
   xmlns:inkscape="http://www.inkscape.org/namespaces/inkscape"
   xmlns:sodipodi="http://sodipodi.sourceforge.net/DTD/sodipodi-0.dtd"
   xmlns="http://www.w3.org/2000/svg"
   xmlns:svg="http://www.w3.org/2000/svg">
  <defs
     id="defs1" />
  <sodipodi:namedview
     id="namedview1"
     pagecolor="#505050"
     bordercolor="#eeeeee"
     borderopacity="1"
     inkscape:showpageshadow="0"
     inkscape:pageopacity="0"
     inkscape:pagecheckerboard="0"
     inkscape:deskcolor="#505050"
     inkscape:zoom="1.0367953"
     inkscape:cx="181.32798"
     inkscape:cy="427.76042"
     inkscape:window-width="3440"
     inkscape:window-height="1369"
     inkscape:window-x="-8"
     inkscape:window-y="-8"
     inkscape:window-maximized="1"
     inkscape:current-layer="svg1" />
  <path
     d="m 758.08035,882.4605 290.63235,330.7708 c 45.1697,51.4071 67.6183,117.373 63.2105,185.6108 -4.4143,68.3403 -35.1632,130.8699 -86.5711,176.0386 l -15.9024,13.9719 -629.02164,-715.78828 15.90103,-13.9723 c 102.93065,-90.53561 271.42662,-79.65171 361.75183,23.36721 z M 1088.892,551.45694 1419.7158,927.972 1143.7284,1170.4683 c -6.1465,-8.2051 -11.1171,-17.1548 -18.0131,-24.8953 L 835.08286,814.80316 c -4.02256,-4.6432 -8.5603,-8.56206 -13.12088,-12.45142 l -1.70955,-1.45847 c -2.56375,-2.18948 -5.1154,-4.39728 -7.56602,-6.74682 L 1088.892,551.45784 Z m 110.9137,-269.80129 501.7453,570.93278 -80.9218,71.10266 c -21.2387,18.6602 -53.669,16.56556 -72.3304,-4.67215 l -17.3208,-19.71298 c -0.1916,-0.21797 -0.1784,-0.42274 -0.3698,-0.64068 -0.1981,-0.11556 -0.4028,-0.12875 -0.492,-0.34012 l -397.5246,-452.428 c -0.1916,-0.21703 -0.275,-0.53078 -0.4656,-0.74866 -0.1915,-0.21791 -0.492,-0.34014 -0.6891,-0.45566 l -17.226,-19.60507 c -18.6613,-21.23776 -16.5599,-53.77057 4.6787,-72.43188 z m 9.3442,-144.65996 -157.9177,138.65857 c -57.18054,50.24075 -65.29514,132.92938 -26.2954,195.54729 L 738.16692,723.1716 c -3.91443,3.34281 -6.3463,7.60372 -8.97717,11.74805 C 601.75429,672.03417 438.66781,685.5397 328.67114,782.09078 l -92.90277,81.63065 348.33719,396.44527 -492.835837,433.0289 c -21.33991,18.6538 -23.43488,51.0852 -4.67207,72.3304 9.27662,10.6659 22.048417,16.5255 35.143017,17.3714 13.09467,0.8458 26.51412,-3.322 37.18748,-12.7001 l 492.83488,-433.029 348.34377,396.3438 92.9036,-81.6298 c 71.9852,-63.1522 115.0326,-150.6738 121.2181,-246.4318 3.2249,-49.9247 -4.3015,-98.7974 -20.7693,-144.4475 2.4647,-1.5873 5.2937,-2.4323 7.5801,-4.4413 l 290.038,-254.8417 c 25.3771,20.6456 54.5588,34.8585 85.7619,36.874 39.2858,2.5377 79.6445,-9.9576 111.4466,-37.9013 l 157.926,-138.75998 z"
     fill-rule="evenodd"
     id="path1"
     style="fill:#ffffff;stroke-width:0.908443;stroke-dasharray:none" />
</svg>
